# xmcd
#
# Track frame offsets: 
#        150
#        6860
#        10507
#        26610
#        45000
#        64172
#        76080
#        88860
#        105042
#        113187
#        122995
#        133635
#        141645
#        166162
#        180510
#        192795
#        203735
#        225337
#        240090
#        260617
#
# Disc length: 3716 seconds
#
# Revision: 3
# Processed by: cddbd v1.5.2PL0 Copyright (c) Steve Scherf et al.
# Submitted via: ExactAudioCopy v1.0b2
#
DISCID=ed0e8214
DTITLE=Various Artist - Space Battleship Yamato Eternal Edition File No.3
DYEAR=2000
DGENRE=Soundtrack
TTITLE0=Earth's Invasion Begins
TTITLE1=In Sick Bay ~ Tears of Love
TTITLE2=The Earth Fleet Strikes Back
TTITLE3=Mankind's Destiny
TTITLE4=Our Yamato
TTITLE5=City Empire
TTITLE6=Cosmo Tigers Takeoff
TTITLE7=Yuki's Moment of Death
TTITLE8=Pathetic Yamato
TTITLE9=Assault
TTITLE10=Resolve
TTITLE11=The Dreadnaught Appears
TTITLE12=Eternal Life
TTITLE13=Two People are Married
TTITLE14=Great Love
TTITLE15=From Yamato with Love
TTITLE16=Overture
TTITLE17=Birth
TTITLE18=Scarlet Scarf
TTITLE19=Hope for Tomorrow
EXTD=YEAR: 2000.11.1
EXTT0=
EXTT1=
EXTT2=
EXTT3=
EXTT4=
EXTT5=
EXTT6=
EXTT7=
EXTT8=
EXTT9=
EXTT10=
EXTT11=
EXTT12=
EXTT13=
EXTT14=
EXTT15=
EXTT16=
EXTT17=
EXTT18=
EXTT19=
PLAYORDER=
